<?xml version="1.0" encoding="UTF-8" standalone="no"?>
<!DOCTYPE svg PUBLIC "-//W3C//DTD SVG 1.1//EN" "http://www.w3.org/Graphics/SVG/1.1/DTD/svg11.dtd">
<svg width="100%" height="100%" viewBox="0 0 43 43" version="1.1" xmlns="http://www.w3.org/2000/svg" xmlns:xlink="http://www.w3.org/1999/xlink" xml:space="preserve" xmlns:serif="http://www.serif.com/" style="fill-rule:evenodd;clip-rule:evenodd;stroke-linejoin:round;stroke-miterlimit:2;">
    <g transform="matrix(1,0,0,1,-723.13,-6236.83)">
        <g id="Artboard1" transform="matrix(1,0,0,7.91845,0,0)">
            <rect x="0" y="0" width="1280" height="800" style="fill:rgb(3,6,12);"/>
            <g transform="matrix(1,0,0,0.126287,-1.64276,722.89)">
                <text x="280.85px" y="359.929px" style="font-family:'Inter-Light', 'Inter', sans-serif;font-weight:300;font-size:20px;fill:white;">Nullam nec ultrices mauris. Mauris auct<tspan x="645.95px " y="359.929px ">o</tspan>r nibh eget risus v<tspan x="824.295px " y="359.929px ">e</tspan>hicula tristique.</text>
                <text x="280.85px" y="389.929px" style="font-family:'Inter-Light', 'Inter', sans-serif;font-weight:300;font-size:20px;fill:white;">Etiam in leo massa. Quisque a mollis lectus, at gra<tspan x="743.798px " y="389.929px ">v</tspan>ida ar<tspan x="806.283px " y="389.929px ">c</tspan>u. Curabitur nibh</text>
                <text x="280.85px" y="419.929px" style="font-family:'Inter-Light', 'Inter', sans-serif;font-weight:300;font-size:20px;fill:white;">ligula, gra<tspan x="370.317px " y="419.929px ">v</tspan>ida eget elementum at, lobor<tspan x="650.268px " y="419.929px ">t</tspan>is non nisl.</text>
            </g>
            <g transform="matrix(0.579231,0,0,0.0744978,703.764,785.941)">
                <rect id="Linkedin" x="33.434" y="22.714" width="73.102" height="71.779" style="fill:none;"/>
                <clipPath id="_clip1">
                    <rect id="Linkedin1" serif:id="Linkedin" x="33.434" y="22.714" width="73.102" height="71.779"/>
                </clipPath>
                <g clip-path="url(#_clip1)">
                    <g transform="matrix(0.633865,0,0,0.622393,25.4013,13.8288)">
                        <circle cx="70.337" cy="71.939" r="57.663" style="fill:rgb(255,0,0);"/>
                    </g>
                    <g transform="matrix(0.633865,0,0,0.622393,25.4013,13.8288)">
                        <circle cx="70.337" cy="71.939" r="57.663" style="fill:rgb(40,103,178);"/>
                    </g>
                    <g id="iconmonstr-linkedin-3" transform="matrix(2.2572,0,0,2.21635,69.9852,57.1524)">
                        <g transform="matrix(1,0,0,1,-12,-12)">
                            <path d="M8,19L5,19L5,8L8,8L8,19ZM6.5,6.732C5.534,6.732 4.75,5.942 4.75,4.968C4.75,3.994 5.534,3.204 6.5,3.204C7.466,3.204 8.25,3.994 8.25,4.968C8.25,5.942 7.467,6.732 6.5,6.732ZM20,19L17,19L17,13.396C17,10.028 13,10.283 13,13.396L13,19L10,19L10,8L13,8L13,9.765C14.396,7.179 20,6.988 20,12.241L20,19Z" style="fill:white;fill-rule:nonzero;"/>
                        </g>
                    </g>
                </g>
            </g>
        </g>
    </g>
</svg>
