<?xml version="1.0" encoding="UTF-8" standalone="no"?><!DOCTYPE svg PUBLIC "-//W3C//DTD SVG 1.1//EN" "http://www.w3.org/Graphics/SVG/1.1/DTD/svg11.dtd"><svg width="100%" height="100%" viewBox="0 0 128 128" version="1.1" xmlns="http://www.w3.org/2000/svg" xmlns:xlink="http://www.w3.org/1999/xlink" xml:space="preserve" xmlns:serif="http://www.serif.com/" style="fill-rule:evenodd;clip-rule:evenodd;stroke-linejoin:round;stroke-miterlimit:1.41421;"><rect id="Youtube" x="0" y="0" width="128" height="128" style="fill:none;"/><circle cx="64" cy="64" r="64" style="fill:#f00;"/><path d="M100.668,45.513c-0.88,-3.314 -3.474,-5.924 -6.767,-6.81c-5.968,-1.609 -29.901,-1.609 -29.901,-1.609c0,0 -23.933,0 -29.901,1.609c-3.293,0.886 -5.887,3.496 -6.767,6.81c-1.599,6.008 -1.599,18.541 -1.599,18.541c0,0 0,12.534 1.599,18.541c0.88,3.315 3.474,5.816 6.767,6.702c5.968,1.609 29.901,1.609 29.901,1.609c0,0 23.933,0 29.901,-1.609c3.293,-0.886 5.887,-3.387 6.767,-6.702c1.599,-6.007 1.599,-18.541 1.599,-18.541c0,0 0,-12.533 -1.599,-18.541Zm-44.495,29.921l0,-22.759l20.003,11.38l-20.003,11.379Z" style="fill:#fff;fill-rule:nonzero;"/></svg>